<?xml version="1.0" encoding="UTF-8" standalone="no"?>
<svg viewBox="0 0 24 24" version="1.1" xmlns="http://www.w3.org/2000/svg" xmlns:xlink="http://www.w3.org/1999/xlink">
    <!-- Generator: sketchtool 39.1 (31720) - http://www.bohemiancoding.com/sketch -->
    <title>062C7F0E-CF41-4996-A174-3020DBB7E3EC</title>
    <desc>Created with sketchtool.</desc>
    <defs>
        <rect id="path-1" x="0" y="0" width="375" height="44"></rect>
        <filter x="-50%" y="-50%" width="200%" height="200%" filterUnits="objectBoundingBox" id="filter-2">
            <feOffset dx="0" dy="0.5" in="SourceAlpha" result="shadowOffsetOuter1"></feOffset>
            <feColorMatrix values="0 0 0 0 0.898039216   0 0 0 0 0.898039216   0 0 0 0 0.898039216  0 0 0 1 0" type="matrix" in="shadowOffsetOuter1" result="shadowMatrixOuter1"></feColorMatrix>
            <feOffset dx="0" dy="-0.5" in="SourceAlpha" result="shadowOffsetOuter2"></feOffset>
            <feColorMatrix values="0 0 0 0 0.898039216   0 0 0 0 0.898039216   0 0 0 0 0.898039216  0 0 0 1 0" type="matrix" in="shadowOffsetOuter2" result="shadowMatrixOuter2"></feColorMatrix>
            <feMerge>
                <feMergeNode in="shadowMatrixOuter1"></feMergeNode>
                <feMergeNode in="shadowMatrixOuter2"></feMergeNode>
            </feMerge>
        </filter>
    </defs>
    <g id="Tweet" stroke="none" stroke-width="1" fill="none" fill-rule="evenodd">
        <g id="Error-Photos-Overload" transform="translate(-116.000000, -633.000000)">
            <g id="Group-2" transform="translate(0.000000, 623.000000)">
                <g id="Rectangle-442" opacity="0.98">
                    <use fill-opacity="1" filter="url(#filter-2)" xlink:href="#path-1"></use>
                    <use fill-rule="evenodd" xlink:href="#path-1"></use>
                </g>
                <g id="Group" transform="translate(18.000000, 10.000000)" fill="#42BD56">
                    <g id="#" transform="translate(98.000000, 0.000000)">
                        <path d="M7,15 L8,9 L4,9 L4,8 L8.16666667,8 L9,3 L10,3 L9.16666667,8 L16.1666667,8 L17,3 L18,3 L17.1666667,8 L21,8 L21,9 L17,9 L16,15 L20,15 L20,16 L15.8333333,16 L15,21 L14,21 L14.8333333,16 L7.83333333,16 L7,21 L6,21 L6.83333333,16 L3,16 L3,15 L7,15 Z M8,15 L9,9 L16,9 L15,15 L8,15 Z" id="Combined-Shape"></path>
                    </g>
                </g>
            </g>
        </g>
    </g>
</svg>