<?xml version="1.0" encoding="UTF-8" standalone="no"?>
<svg viewBox="0 0 24 24" version="1.1" xmlns="http://www.w3.org/2000/svg" xmlns:xlink="http://www.w3.org/1999/xlink">
    <!-- Generator: sketchtool 39.1 (31720) - http://www.bohemiancoding.com/sketch -->
    <title>A1168966-AA13-4034-8FFF-37718202A4A8</title>
    <desc>Created with sketchtool.</desc>
    <defs>
        <rect id="path-1" x="0" y="0" width="375" height="44"></rect>
        <filter x="-50%" y="-50%" width="200%" height="200%" filterUnits="objectBoundingBox" id="filter-2">
            <feOffset dx="0" dy="0.5" in="SourceAlpha" result="shadowOffsetOuter1"></feOffset>
            <feColorMatrix values="0 0 0 0 0.898039216   0 0 0 0 0.898039216   0 0 0 0 0.898039216  0 0 0 1 0" type="matrix" in="shadowOffsetOuter1" result="shadowMatrixOuter1"></feColorMatrix>
            <feOffset dx="0" dy="-0.5" in="SourceAlpha" result="shadowOffsetOuter2"></feOffset>
            <feColorMatrix values="0 0 0 0 0.898039216   0 0 0 0 0.898039216   0 0 0 0 0.898039216  0 0 0 1 0" type="matrix" in="shadowOffsetOuter2" result="shadowMatrixOuter2"></feColorMatrix>
            <feMerge>
                <feMergeNode in="shadowMatrixOuter1"></feMergeNode>
                <feMergeNode in="shadowMatrixOuter2"></feMergeNode>
            </feMerge>
        </filter> 
    </defs>
    <g id="Tweet" stroke="none" stroke-width="1" fill="none" fill-rule="evenodd">
        <g id="Error-Photos-Overload" transform="translate(-18.000000, -633.000000)">
            <g id="Group-2" transform="translate(0.000000, 623.000000)">
                <g id="Rectangle-442" opacity="0.98">
                    <use fill-opacity="1" filter="url(#filter-2)" xlink:href="#path-1"></use>
                    <use fill-rule="evenodd" xlink:href="#path-1"></use>
                </g>
                <g id="Group" transform="translate(18.000000, 10.000000)" stroke="#42BD56">
                    <g id="camera-copy-5">
                        <path d="M3.01162791,4 L7.50579857,4 L3.01162791,4 Z M14.9997823,17.5021318 C12.2383301,17.5021318 9.9997562,15.2635579 9.9997562,12.5021057 C9.9997562,9.74070574 12.2383301,7.5021318 14.9997823,7.5021318 C17.7611823,7.5021318 19.9997562,9.74070574 19.9997562,12.5021057 C19.9997562,15.2635579 17.7611823,17.5021318 14.9997823,17.5021318 Z M10.8972968,4.01624095 L9.43768352,6.50259395 L2.03411871,6.50259395 C1.20975514,6.50259395 0.527824868,7.11598929 0.527824868,7.92254743 L0.496063231,18.5178704 C0.496063231,19.3244285 1.08535766,20.0090336 2.03411865,20.0090336 L22.1052246,20.0090332 C22.9296357,20.0090332 23.5029345,19.3244285 23.5029345,18.5178704 L23.5029339,5.55065915 C23.5029339,4.46349636 22.7272049,4.01624055 22.0471763,4.01624055 L10.8972968,4.01624095 Z" id="Page-1"></path>
                    </g>
                </g>
            </g>
        </g>
    </g>
</svg>