<?xml version="1.0" encoding="UTF-8" standalone="no"?>
<svg viewBox="0 0 24 24" version="1.1" xmlns="http://www.w3.org/2000/svg" xmlns:xlink="http://www.w3.org/1999/xlink">
    <!-- Generator: sketchtool 39.1 (31720) - http://www.bohemiancoding.com/sketch -->
    <title>33EE66AF-690E-4796-B908-4FD4D08D07C2</title>
    <desc>Created with sketchtool.</desc>
    <defs>
        <rect id="path-1" x="0" y="0" width="375" height="44"></rect>
        <filter x="-50%" y="-50%" width="200%" height="200%" filterUnits="objectBoundingBox" id="filter-2">
            <feOffset dx="0" dy="0.5" in="SourceAlpha" result="shadowOffsetOuter1"></feOffset>
            <feColorMatrix values="0 0 0 0 0.898039216   0 0 0 0 0.898039216   0 0 0 0 0.898039216  0 0 0 1 0" type="matrix" in="shadowOffsetOuter1" result="shadowMatrixOuter1"></feColorMatrix>
            <feOffset dx="0" dy="-0.5" in="SourceAlpha" result="shadowOffsetOuter2"></feOffset>
            <feColorMatrix values="0 0 0 0 0.898039216   0 0 0 0 0.898039216   0 0 0 0 0.898039216  0 0 0 1 0" type="matrix" in="shadowOffsetOuter2" result="shadowMatrixOuter2"></feColorMatrix>
            <feMerge>
                <feMergeNode in="shadowMatrixOuter1"></feMergeNode>
                <feMergeNode in="shadowMatrixOuter2"></feMergeNode>
            </feMerge>
        </filter>
    </defs> 
    <g id="Tweet" stroke="none" stroke-width="1" fill="none" fill-rule="evenodd">
        <g id="Error-Photos-Overload" transform="translate(-67.000000, -633.000000)">
            <g id="Group-2" transform="translate(0.000000, 623.000000)">
                <g id="Rectangle-442" opacity="0.98">
                    <use fill-opacity="1" filter="url(#filter-2)" xlink:href="#path-1"></use>
                    <use fill-rule="evenodd" xlink:href="#path-1"></use>
                </g>
                <g id="Group" transform="translate(18.000000, 10.000000)" fill="#42BD56">
                    <g id="smiley-copy-3" transform="translate(49.000000, 0.000000)">
                        <path d="M12.2571042,2 C9.38836265,2 6.9526387,2.9703504 4.97699594,4.93800539 C2.97428958,6.85175202 2,9.22371968 2,12.0269542 C2,15.0458221 2.94722598,17.4716981 4.84167794,19.3045822 C6.68200271,21.083558 9.06359946,22 12.0405954,22 C14.2598106,22 16.2895805,21.5148248 18.0757781,20.5714286 C19.7537212,19.6819407 21.052774,18.4959569 22,17.0134771 L20.9445196,17.0134771 C20.105548,18.1994609 18.9959405,19.1698113 17.5886333,19.8975741 C15.9648173,20.7061995 14.097429,21.1374663 12.0405954,21.1374663 C9.36129905,21.1374663 7.1962111,20.328841 5.51826793,18.7115903 C3.81326116,17.0673854 2.97428958,14.8571429 2.97428958,12.0539084 C2.97428958,9.4393531 3.86738836,7.25606469 5.65358593,5.50404313 C7.43978349,3.72506739 9.63193505,2.86253369 12.2300406,2.86253369 C14.6657645,2.86253369 16.6143437,3.5902965 18.1299053,5.0458221 C19.564276,6.44743935 20.2949932,8.25336927 20.2949932,10.4366577 C20.2949932,12.2156334 19.7537212,13.7520216 18.6711773,15.0727763 C17.6968877,16.2048518 16.7496617,16.7978437 15.8294993,16.7978437 C15.1799729,16.7978437 14.8822733,16.5283019 14.8822733,15.9892183 C14.8822733,15.5849057 14.9364005,15.0997305 15.0987821,14.5606469 L17.1285521,6.93261456 L16.1813261,6.93261456 L15.7212449,8.63072776 C15.3152909,7.14824798 14.3951286,6.42048518 12.9607578,6.42048518 C11.3369418,6.42048518 9.95669824,7.1212938 8.76589986,8.52291105 C7.46684709,9.97843666 6.8443843,11.8113208 6.8443843,13.967655 C6.8443843,15.0458221 7.1420839,15.9622642 7.76454668,16.690027 C8.38700947,17.3908356 9.22598106,17.7681941 10.308525,17.7681941 C11.7158322,17.7681941 12.9607578,17.0943396 14.0433018,15.7735849 C14.097429,17.0404313 14.6657645,17.6873315 15.7753721,17.6873315 C17.0202977,17.6873315 18.2110961,16.9865229 19.3477673,15.638814 C20.5656292,14.1293801 21.188092,12.4043127 21.188092,10.4366577 C21.188092,7.98382749 20.376184,5.96226415 18.7794317,4.39892183 C17.1556157,2.78167116 14.9634641,2 12.2571042,2 Z M13.0419486,7.33692722 C13.7726658,7.33692722 14.368065,7.63342318 14.8010825,8.28032345 C15.1258457,8.76549865 15.3152909,9.30458221 15.3152909,9.89757412 C15.3152909,10.1132075 15.2341001,10.490566 15.0717185,11.083558 L14.3951286,13.5902965 C14.1786198,14.3450135 13.691475,15.0727763 12.9336942,15.7735849 C12.0947226,16.5013477 11.2286874,16.8787062 10.3355886,16.8787062 C9.55074425,16.8787062 8.92828146,16.6091644 8.49526387,16.0700809 C8.00811908,15.5309973 7.79161028,14.8571429 7.79161028,13.9946092 C7.79161028,12.0539084 8.35994587,10.4366577 9.49661705,9.14285714 C10.5250338,7.92991914 11.6887686,7.33692722 13.0419486,7.33692722 Z" id="Combined-Shape"></path>
                    </g>
                </g>
            </g>
        </g>
    </g>
</svg>